<svg xmlns="http://www.w3.org/2000/svg" xmlns:xlink="http://www.w3.org/1999/xlink" width="40" zoomAndPan="magnify" viewBox="0 0 30 30.000001" height="40" preserveAspectRatio="xMidYMid meet" version="1.0"><defs><clipPath id="aabacccbd4"><path d="M 0.484375 1 L 29.515625 1 L 29.515625 28 L 0.484375 28 Z M 0.484375 1 " clip-rule="nonzero"/></clipPath></defs><g clip-path="url(#aabacccbd4)"><path fill="#ffffff" d="M 16.796875 15.695312 C 18.832031 17.738281 26.175781 25.074219 26.175781 25.074219 C 26.183594 25.078125 26.191406 25.085938 26.199219 25.089844 C 26.765625 25.660156 26.765625 26.582031 26.199219 27.148438 C 25.632812 27.714844 24.707031 27.714844 24.140625 27.148438 C 24.136719 27.136719 24.128906 27.132812 24.125 27.128906 C 24.125 27.128906 17.476562 20.480469 15.078125 18.082031 C 12.554688 20.613281 5.984375 27.183594 5.984375 27.183594 C 5.976562 27.1875 5.972656 27.199219 5.96875 27.207031 C 5.394531 27.785156 4.457031 27.785156 3.878906 27.207031 C 3.851562 27.179688 3.738281 27.066406 3.710938 27.035156 C 3.132812 26.457031 3.132812 25.523438 3.710938 24.949219 C 3.714844 24.945312 3.726562 24.9375 3.734375 24.933594 C 3.734375 24.933594 10.808594 17.855469 13.089844 15.570312 C 12.160156 14.3125 10.671875 12.855469 8.273438 12.832031 C 8.269531 12.832031 8.261719 12.832031 8.257812 12.832031 C 7.34375 12.859375 6.425781 12.554688 5.695312 11.914062 C 5.644531 11.867188 5.523438 11.742188 5.523438 11.742188 L 0.484375 5.390625 L 1.089844 4.785156 L 7.253906 11.308594 L 7.980469 10.574219 L 1.636719 4.234375 L 2.167969 3.707031 L 8.546875 10.085938 L 9.148438 9.488281 L 2.773438 3.101562 L 3.359375 2.519531 L 9.738281 8.898438 L 10.453125 8.183594 L 3.867188 2.007812 L 4.425781 1.457031 L 10.492188 6.1875 C 10.492188 6.1875 10.714844 6.375 10.785156 6.445312 C 11.621094 7.28125 11.976562 8.410156 11.859375 9.496094 C 12.023438 12.21875 13.589844 13.574219 14.835938 14.339844 C 16.445312 13.417969 18.242188 12 18.464844 10.6875 C 17.609375 9.089844 17.871094 6.011719 20.210938 3.667969 C 22.535156 1.34375 25.933594 0.46875 28.195312 2.664062 C 28.207031 2.675781 28.242188 2.710938 28.25 2.722656 C 30.445312 4.988281 29.566406 8.386719 27.246094 10.710938 C 24.90625 13.054688 21.828125 13.3125 20.226562 12.457031 C 19.019531 12.65625 17.714844 14.199219 16.796875 15.695312 Z M 16.796875 15.695312 " fill-opacity="1" fill-rule="nonzero"/><path fill="#ffffff" d="M 16.796875 15.695312 C 18.832031 17.738281 26.175781 25.074219 26.175781 25.074219 C 26.183594 25.078125 26.191406 25.085938 26.199219 25.089844 C 26.765625 25.660156 26.765625 26.582031 26.199219 27.148438 C 25.632812 27.714844 24.707031 27.714844 24.140625 27.148438 C 24.136719 27.136719 24.128906 27.132812 24.125 27.128906 C 24.125 27.128906 17.476562 20.480469 15.078125 18.082031 C 12.554688 20.613281 5.984375 27.183594 5.984375 27.183594 C 5.976562 27.1875 5.972656 27.199219 5.96875 27.207031 C 5.394531 27.785156 4.457031 27.785156 3.878906 27.207031 C 3.851562 27.179688 3.738281 27.066406 3.710938 27.035156 C 3.132812 26.457031 3.132812 25.523438 3.710938 24.949219 C 3.714844 24.945312 3.726562 24.9375 3.734375 24.933594 C 3.734375 24.933594 10.808594 17.855469 13.089844 15.570312 C 12.160156 14.3125 10.671875 12.855469 8.273438 12.832031 C 8.269531 12.832031 8.261719 12.832031 8.257812 12.832031 C 7.34375 12.859375 6.425781 12.554688 5.695312 11.914062 C 5.644531 11.867188 5.523438 11.742188 5.523438 11.742188 L 0.484375 5.390625 L 1.089844 4.785156 L 7.253906 11.308594 L 7.980469 10.574219 L 1.636719 4.234375 L 2.167969 3.707031 L 8.546875 10.085938 L 9.148438 9.488281 L 2.773438 3.101562 L 3.359375 2.519531 L 9.738281 8.898438 L 10.453125 8.183594 L 3.867188 2.007812 L 4.425781 1.457031 L 10.492188 6.1875 C 10.492188 6.1875 10.714844 6.375 10.785156 6.445312 C 11.621094 7.28125 11.976562 8.410156 11.859375 9.496094 C 12.023438 12.21875 13.589844 13.574219 14.835938 14.339844 C 16.445312 13.417969 18.242188 12 18.464844 10.6875 C 17.609375 9.089844 17.871094 6.011719 20.210938 3.667969 C 22.535156 1.34375 25.933594 0.46875 28.195312 2.664062 C 28.207031 2.675781 28.242188 2.710938 28.25 2.722656 C 30.445312 4.988281 29.566406 8.386719 27.246094 10.710938 C 24.90625 13.054688 21.828125 13.3125 20.226562 12.457031 C 19.019531 12.65625 17.714844 14.199219 16.796875 15.695312 Z M 16.796875 15.695312 " fill-opacity="1" fill-rule="nonzero"/></g></svg>