<svg xmlns="http://www.w3.org/2000/svg" xmlns:xlink="http://www.w3.org/1999/xlink" width="40" zoomAndPan="magnify" viewBox="0 0 30 30.000001" height="40" preserveAspectRatio="xMidYMid meet" version="1.0"><defs><clipPath id="57dfe85190"><path d="M 3 1 L 27.796875 1 L 27.796875 28.257812 L 3 28.257812 Z M 3 1 " clip-rule="nonzero"/></clipPath></defs><g clip-path="url(#57dfe85190)"><path fill="#383839" d="M 27.3125 26.714844 L 21.519531 19.058594 C 21.816406 18.734375 22.089844 18.394531 22.34375 18.039062 C 22.597656 17.679688 22.828125 17.308594 23.03125 16.921875 C 23.238281 16.535156 23.417969 16.136719 23.574219 15.730469 C 23.730469 15.320312 23.859375 14.902344 23.960938 14.476562 C 24.0625 14.050781 24.140625 13.621094 24.1875 13.1875 C 24.234375 12.75 24.253906 12.3125 24.246094 11.875 C 24.238281 11.4375 24.203125 11.003906 24.140625 10.570312 C 24.078125 10.136719 23.988281 9.710938 23.871094 9.289062 C 23.753906 8.867188 23.609375 8.453125 23.4375 8.050781 C 23.269531 7.644531 23.074219 7.253906 22.855469 6.875 C 22.636719 6.496094 22.394531 6.132812 22.128906 5.785156 C 21.863281 5.4375 21.574219 5.109375 21.269531 4.796875 C 20.960938 4.484375 20.632812 4.195312 20.289062 3.925781 C 19.945312 3.652344 19.585938 3.40625 19.210938 3.183594 C 18.832031 2.957031 18.445312 2.757812 18.042969 2.582031 C 17.640625 2.40625 17.230469 2.257812 16.8125 2.136719 C 16.390625 2.011719 15.964844 1.917969 15.53125 1.847656 C 15.101562 1.78125 14.664062 1.738281 14.226562 1.726562 C 13.789062 1.710938 13.355469 1.726562 12.917969 1.769531 C 12.480469 1.808594 12.050781 1.878906 11.625 1.976562 C 11.195312 2.074219 10.777344 2.195312 10.367188 2.347656 C 9.957031 2.496094 9.554688 2.671875 9.167969 2.875 C 8.777344 3.074219 8.402344 3.300781 8.042969 3.546875 C 7.683594 3.796875 7.339844 4.066406 7.011719 4.359375 C 6.6875 4.652344 6.378906 4.960938 6.09375 5.292969 C 5.808594 5.625 5.542969 5.972656 5.300781 6.335938 C 5.058594 6.703125 4.839844 7.078125 4.644531 7.472656 C 4.453125 7.863281 4.28125 8.269531 4.140625 8.679688 C 3.996094 9.09375 3.878906 9.515625 3.792969 9.945312 C 3.703125 10.375 3.640625 10.804688 3.605469 11.242188 C 3.570312 11.679688 3.5625 12.117188 3.585938 12.554688 C 3.605469 12.988281 3.652344 13.425781 3.730469 13.855469 C 3.804688 14.285156 3.910156 14.710938 4.039062 15.128906 C 4.167969 15.546875 4.324219 15.957031 4.507812 16.351562 C 4.6875 16.75 4.894531 17.136719 5.125 17.507812 C 5.355469 17.878906 5.609375 18.238281 5.886719 18.578125 C 6.164062 18.917969 6.457031 19.238281 6.777344 19.539062 C 7.09375 19.839844 7.425781 20.121094 7.78125 20.382812 C 8.132812 20.640625 8.5 20.878906 8.882812 21.089844 C 9.265625 21.304688 9.660156 21.492188 10.066406 21.65625 C 10.472656 21.816406 10.886719 21.953125 11.308594 22.0625 C 11.734375 22.175781 12.164062 22.257812 12.597656 22.3125 C 13.03125 22.367188 13.46875 22.394531 13.90625 22.394531 C 14.34375 22.394531 14.777344 22.367188 15.214844 22.3125 C 15.648438 22.257812 16.078125 22.175781 16.5 22.066406 C 16.925781 21.957031 17.339844 21.820312 17.746094 21.660156 C 18.152344 21.496094 18.546875 21.308594 18.929688 21.097656 C 19.3125 20.882812 19.679688 20.648438 20.03125 20.386719 L 25.726562 27.917969 C 25.804688 28.023438 25.902344 28.109375 26.015625 28.175781 C 26.132812 28.242188 26.253906 28.285156 26.386719 28.304688 C 26.515625 28.324219 26.648438 28.316406 26.773438 28.28125 C 26.902344 28.25 27.019531 28.191406 27.125 28.113281 C 27.234375 28.03125 27.320312 27.9375 27.386719 27.820312 C 27.453125 27.707031 27.496094 27.585938 27.515625 27.453125 C 27.53125 27.320312 27.527344 27.191406 27.492188 27.0625 C 27.460938 26.933594 27.402344 26.816406 27.324219 26.710938 Z M 5.25 12.058594 C 5.246094 11.488281 5.304688 10.925781 5.414062 10.367188 C 5.523438 9.808594 5.691406 9.265625 5.90625 8.742188 C 6.125 8.214844 6.390625 7.714844 6.707031 7.242188 C 7.023438 6.769531 7.382812 6.332031 7.785156 5.929688 C 8.1875 5.527344 8.625 5.167969 9.097656 4.851562 C 9.570312 4.535156 10.070312 4.269531 10.597656 4.050781 C 11.121094 3.832031 11.664062 3.667969 12.222656 3.558594 C 12.78125 3.445312 13.34375 3.390625 13.914062 3.390625 C 14.480469 3.390625 15.046875 3.445312 15.601562 3.558594 C 16.160156 3.667969 16.703125 3.832031 17.230469 4.050781 C 17.753906 4.269531 18.253906 4.535156 18.726562 4.851562 C 19.199219 5.167969 19.636719 5.527344 20.039062 5.929688 C 20.441406 6.332031 20.800781 6.769531 21.117188 7.242188 C 21.433594 7.714844 21.699219 8.214844 21.917969 8.738281 C 22.136719 9.265625 22.300781 9.808594 22.410156 10.367188 C 22.523438 10.921875 22.578125 11.488281 22.578125 12.054688 C 22.578125 12.625 22.523438 13.1875 22.410156 13.746094 C 22.300781 14.304688 22.136719 14.847656 21.917969 15.371094 C 21.699219 15.898438 21.433594 16.398438 21.117188 16.871094 C 20.800781 17.34375 20.441406 17.78125 20.039062 18.183594 C 19.636719 18.585938 19.199219 18.945312 18.726562 19.261719 C 18.253906 19.578125 17.753906 19.84375 17.226562 20.0625 C 16.703125 20.28125 16.160156 20.445312 15.601562 20.554688 C 15.042969 20.664062 14.480469 20.722656 13.910156 20.722656 C 13.34375 20.722656 12.78125 20.664062 12.222656 20.554688 C 11.664062 20.441406 11.121094 20.277344 10.597656 20.0625 C 10.070312 19.84375 9.570312 19.578125 9.097656 19.261719 C 8.625 18.945312 8.1875 18.585938 7.785156 18.183594 C 7.382812 17.78125 7.023438 17.34375 6.707031 16.871094 C 6.390625 16.398438 6.125 15.898438 5.90625 15.371094 C 5.691406 14.847656 5.527344 14.304688 5.414062 13.746094 C 5.304688 13.1875 5.25 12.625 5.25 12.058594 Z M 5.25 12.058594 " fill-opacity="1" fill-rule="nonzero"/></g></svg>